<svg width="14" height="14" viewBox="0 0 14 14" fill="none" xmlns="http://www.w3.org/2000/svg">
<path d="M13.6666 2.8L10.6 0.200001L9.73331 1.2L12.8 3.8L13.6666 2.8ZM4.26665 1.26667L3.39998 0.266667L0.333313 2.8L1.19998 3.8L4.26665 1.26667ZM7.33331 4.33333H6.33331V8.33333L9.46665 10.2667L9.99998 9.46667L7.33331 7.86667V4.33333ZM6.99998 1.66667C3.66665 1.66667 0.99998 4.33333 0.99998 7.66667C0.99998 11 3.66665 13.6667 6.99998 13.6667C10.3333 13.6667 13 11 13 7.66667C13 4.33333 10.3333 1.66667 6.99998 1.66667ZM6.99998 12.3333C4.39998 12.3333 2.33331 10.2667 2.33331 7.66667C2.33331 5.06667 4.39998 3 6.99998 3C9.59998 3 11.6666 5.06667 11.6666 7.66667C11.6666 10.2667 9.59998 12.3333 6.99998 12.3333Z" fill="white"/>
</svg>
